<?xml version="1.0" encoding="UTF-8"?>
<!DOCTYPE svg PUBLIC "-//W3C//DTD SVG 1.1//EN" "http://www.w3.org/Graphics/SVG/1.1/DTD/svg11.dtd">
<svg xmlns="http://www.w3.org/2000/svg" version="1.1" width="52px" height="51px" style="shape-rendering:geometricPrecision; text-rendering:geometricPrecision; image-rendering:optimizeQuality; fill-rule:evenodd; clip-rule:evenodd" xmlns:xlink="http://www.w3.org/1999/xlink">
<g><path style="opacity:0.871" fill="#fefffe" d="M 14.5,-0.5 C 22.1667,-0.5 29.8333,-0.5 37.5,-0.5C 42.6281,4.41813 47.2948,9.75147 51.5,15.5C 51.5,18.5 51.5,21.5 51.5,24.5C 44.5302,33.1422 37.5302,41.8088 30.5,50.5C 27.5,50.5 24.5,50.5 21.5,50.5C 13.4378,42.011 6.10448,33.011 -0.5,23.5C -0.5,20.8333 -0.5,18.1667 -0.5,15.5C 3.79493,9.53736 8.79493,4.20403 14.5,-0.5 Z M 23.5,4.5 C 25.4672,4.26057 27.3005,4.59391 29,5.5C 30.4774,9.42986 31.6441,13.4299 32.5,17.5C 27.7863,17.8266 23.1196,17.4933 18.5,16.5C 19.7837,12.3088 21.4504,8.30876 23.5,4.5 Z M 34.5,6.5 C 34.8966,5.47498 35.5632,5.30831 36.5,6C 39.5,9.66667 42.5,13.3333 45.5,17C 43.1902,17.4966 40.8568,17.6633 38.5,17.5C 38.2179,13.3201 36.8846,9.65346 34.5,6.5 Z M 15.5,6.5 C 14.7761,9.84264 13.9428,13.176 13,16.5C 10.8615,17.7691 8.69481,17.7691 6.5,16.5C 8.81049,12.524 11.8105,9.1907 15.5,6.5 Z M 16.5,35.5 C 12.6508,31.8098 9.31745,27.6431 6.5,23C 8.80982,22.5034 11.1432,22.3367 13.5,22.5C 14.6564,26.7925 15.6564,31.1259 16.5,35.5 Z M 19.5,22.5 C 23.8461,22.3343 28.1794,22.501 32.5,23C 30.3425,29.4726 28.1758,35.9726 26,42.5C 23.3268,35.9809 21.1602,29.3142 19.5,22.5 Z M 34.5,36.5 C 35.5578,32.1565 36.7245,27.8232 38,23.5C 40.1385,22.2309 42.3052,22.2309 44.5,23.5C 41.3887,28.0824 38.0554,32.4157 34.5,36.5 Z"/></g>
</svg>
