<?xml version="1.0" encoding="UTF-8"?>
<!DOCTYPE svg PUBLIC "-//W3C//DTD SVG 1.1//EN" "http://www.w3.org/Graphics/SVG/1.1/DTD/svg11.dtd">
<svg xmlns="http://www.w3.org/2000/svg" version="1.1" width="56px" height="57px" style="shape-rendering:geometricPrecision; text-rendering:geometricPrecision; image-rendering:optimizeQuality; fill-rule:evenodd; clip-rule:evenodd" xmlns:xlink="http://www.w3.org/1999/xlink">
<g><path style="opacity:0.882" fill="#fefffe" d="M 2.5,-0.5 C 4.16667,-0.5 5.83333,-0.5 7.5,-0.5C 10.9119,1.48913 11.9119,4.32246 10.5,8C 12.0542,9.89204 13.8876,11.392 16,12.5C 23.7981,7.22341 31.6314,7.22341 39.5,12.5C 43.6757,10.4768 45.509,7.14342 45,2.5C 46.045,1.62656 46.8783,0.626561 47.5,-0.5C 49.5,-0.5 51.5,-0.5 53.5,-0.5C 53.8333,0.5 54.5,1.16667 55.5,1.5C 55.5,4.16667 55.5,6.83333 55.5,9.5C 53.1489,11.0696 50.4823,11.9029 47.5,12C 45.981,13.3513 44.6477,14.8513 43.5,16.5C 45.6761,20.0366 47.0095,23.8699 47.5,28C 46.4799,32.6945 45.3133,37.1945 44,41.5C 44.8333,42.3333 45.6667,43.1667 46.5,44C 49.7223,44.199 52.7223,45.0324 55.5,46.5C 55.5,49.1667 55.5,51.8333 55.5,54.5C 54.5,54.8333 53.8333,55.5 53.5,56.5C 51.5,56.5 49.5,56.5 47.5,56.5C 46.828,55.7326 45.9947,55.0659 45,54.5C 45.6169,49.5399 43.7836,45.8732 39.5,43.5C 31.6713,48.7992 23.838,48.7992 16,43.5C 14.1667,45.3333 12.3333,47.1667 10.5,49C 11.5169,51.8396 10.8502,54.3396 8.5,56.5C 6.16667,56.5 3.83333,56.5 1.5,56.5C 1.16667,55.5 0.5,54.8333 -0.5,54.5C -0.5,52.1667 -0.5,49.8333 -0.5,47.5C 1.91993,45.0801 4.91993,43.9134 8.5,44C 9.83333,42.6667 11.1667,41.3333 12.5,40C 7.2281,32.0287 7.2281,24.0287 12.5,16C 11.1667,14.6667 9.83333,13.3333 8.5,12C 5.27765,11.801 2.27765,10.9676 -0.5,9.5C -0.5,7.16667 -0.5,4.83333 -0.5,2.5C 0.833333,1.83333 1.83333,0.833333 2.5,-0.5 Z M 25.5,15.5 C 32.6317,15.7891 34.2983,18.9558 30.5,25C 25.9322,26.6505 23.2656,25.1505 22.5,20.5C 23.0924,18.5775 24.0924,16.9108 25.5,15.5 Z M 25.5,28.5 C 32.8802,28.8672 35.5469,32.5338 33.5,39.5C 29.1524,41.0346 24.9858,40.7013 21,38.5C 20.0769,34.0165 21.5769,30.6832 25.5,28.5 Z"/></g>
</svg>
